<svg xmlns="http://www.w3.org/2000/svg" xmlns:xlink="http://www.w3.org/1999/xlink" width="500" zoomAndPan="magnify" viewBox="0 0 375 149.999998" height="200" preserveAspectRatio="xMidYMid meet" version="1.0"><defs><g/></defs><rect x="-37.5" width="450" fill="#ffffff" y="-15" height="179.999997" fill-opacity="1"/><rect x="-37.5" width="450" fill="#ffffff" y="-15" height="179.999997" fill-opacity="1"/><g fill="#61c6c3" fill-opacity="1"><g transform="translate(89.630702, 92.45085)"><g><path d="M 4.921875 3.433594 C 0.671875 2.835938 4.328125 -15.144531 5.371094 -21.484375 C 5.667969 -23.351562 1.566406 -25.289062 0.148438 -19.546875 C -1.195312 -14.175781 -2.984375 5.667969 5.148438 4.625 C 8.058594 4.253906 10.816406 2.089844 16.113281 -13.355469 C 14.101562 0.148438 15.441406 9.472656 22.457031 8.652344 C 27.453125 8.058594 30.660156 0.894531 34.167969 -6.566406 C 40.734375 -5.074219 48.269531 -9.921875 53.9375 -17.457031 C 53.9375 -17.832031 52.746094 -17.753906 52.445312 -17.382812 C 48.492188 -11.9375 40.507812 -6.042969 34.691406 -7.683594 C 38.644531 -17.679688 38.867188 -27.527344 33.796875 -28.574219 C 24.695312 -30.4375 20.8125 -13.875 32.898438 -7.085938 C 29.542969 1.714844 26.109375 6.863281 22.457031 7.683594 C 17.753906 8.730469 20.8125 -12.234375 22.304688 -23.574219 C 22.679688 -26.78125 18.726562 -26.933594 17.679688 -24.097656 C 15.070312 -17.308594 10.816406 4.253906 4.921875 3.433594 Z M 33.421875 -8.207031 C 22.53125 -14.101562 26.109375 -28.871094 33.496094 -27.453125 C 36.78125 -26.855469 37.601562 -17.90625 33.421875 -8.207031 Z M 33.421875 -8.207031 "/></g></g></g><g fill="#61c6c3" fill-opacity="1"><g transform="translate(141.849006, 92.45085)"><g><path d="M 1.195312 -0.449219 C 1.566406 0.222656 2.386719 0.449219 3.058594 -0.371094 C 3.65625 -1.042969 3.28125 -2.386719 2.386719 -2.460938 C 1.195312 -2.460938 0.746094 -1.195312 1.195312 -0.449219 Z M 1.195312 -0.449219 "/></g></g></g><g fill="#61c6c3" fill-opacity="1"><g transform="translate(149.756351, 92.45085)"><g><path d="M 1.195312 -0.449219 C 1.566406 0.222656 2.386719 0.449219 3.058594 -0.371094 C 3.65625 -1.042969 3.28125 -2.386719 2.386719 -2.460938 C 1.195312 -2.460938 0.746094 -1.195312 1.195312 -0.449219 Z M 1.195312 -0.449219 "/></g></g></g><g fill="#61c6c3" fill-opacity="1"><g transform="translate(157.663695, 92.45085)"><g><path d="M 1.195312 -0.449219 C 1.566406 0.222656 2.386719 0.449219 3.058594 -0.371094 C 3.65625 -1.042969 3.28125 -2.386719 2.386719 -2.460938 C 1.195312 -2.460938 0.746094 -1.195312 1.195312 -0.449219 Z M 1.195312 -0.449219 "/></g></g></g><g fill="#61c6c3" fill-opacity="1"><g transform="translate(165.571039, 92.45085)"><g><path d="M 1.195312 -0.449219 C 1.566406 0.222656 2.386719 0.449219 3.058594 -0.371094 C 3.65625 -1.042969 3.28125 -2.386719 2.386719 -2.460938 C 1.195312 -2.460938 0.746094 -1.195312 1.195312 -0.449219 Z M 1.195312 -0.449219 "/></g></g></g><g fill="#61c6c3" fill-opacity="1"><g transform="translate(173.478384, 92.45085)"><g><path d="M 1.195312 -0.449219 C 1.566406 0.222656 2.386719 0.449219 3.058594 -0.371094 C 3.65625 -1.042969 3.28125 -2.386719 2.386719 -2.460938 C 1.195312 -2.460938 0.746094 -1.195312 1.195312 -0.449219 Z M 1.195312 -0.449219 "/></g></g></g><g fill="#61c6c3" fill-opacity="1"><g transform="translate(181.385728, 92.45085)"><g><path d="M 1.195312 -0.449219 C 1.566406 0.222656 2.386719 0.449219 3.058594 -0.371094 C 3.65625 -1.042969 3.28125 -2.386719 2.386719 -2.460938 C 1.195312 -2.460938 0.746094 -1.195312 1.195312 -0.449219 Z M 1.195312 -0.449219 "/></g></g></g><g fill="#61c6c3" fill-opacity="1"><g transform="translate(189.293072, 92.45085)"><g><path d="M 1.195312 -0.449219 C 1.566406 0.222656 2.386719 0.449219 3.058594 -0.371094 C 3.65625 -1.042969 3.28125 -2.386719 2.386719 -2.460938 C 1.195312 -2.460938 0.746094 -1.195312 1.195312 -0.449219 Z M 1.195312 -0.449219 "/></g></g></g><g fill="#61c6c3" fill-opacity="1"><g transform="translate(197.200422, 92.45085)"><g><path d="M 1.195312 -0.449219 C 1.566406 0.222656 2.386719 0.449219 3.058594 -0.371094 C 3.65625 -1.042969 3.28125 -2.386719 2.386719 -2.460938 C 1.195312 -2.460938 0.746094 -1.195312 1.195312 -0.449219 Z M 1.195312 -0.449219 "/></g></g></g><g fill="#61c6c3" fill-opacity="1"><g transform="translate(205.107761, 92.45085)"><g><path d="M 1.195312 -0.449219 C 1.566406 0.222656 2.386719 0.449219 3.058594 -0.371094 C 3.65625 -1.042969 3.28125 -2.386719 2.386719 -2.460938 C 1.195312 -2.460938 0.746094 -1.195312 1.195312 -0.449219 Z M 1.195312 -0.449219 "/></g></g></g><g fill="#61c6c3" fill-opacity="1"><g transform="translate(213.015099, 92.45085)"><g><path d="M 1.195312 -0.449219 C 1.566406 0.222656 2.386719 0.449219 3.058594 -0.371094 C 3.65625 -1.042969 3.28125 -2.386719 2.386719 -2.460938 C 1.195312 -2.460938 0.746094 -1.195312 1.195312 -0.449219 Z M 1.195312 -0.449219 "/></g></g></g><g fill="#61c6c3" fill-opacity="1"><g transform="translate(220.922438, 92.45085)"><g><path d="M 1.195312 -0.449219 C 1.566406 0.222656 2.386719 0.449219 3.058594 -0.371094 C 3.65625 -1.042969 3.28125 -2.386719 2.386719 -2.460938 C 1.195312 -2.460938 0.746094 -1.195312 1.195312 -0.449219 Z M 1.195312 -0.449219 "/></g></g></g><g fill="#61c6c3" fill-opacity="1"><g transform="translate(228.829776, 92.45085)"><g><path d="M 1.195312 -0.449219 C 1.566406 0.222656 2.386719 0.449219 3.058594 -0.371094 C 3.65625 -1.042969 3.28125 -2.386719 2.386719 -2.460938 C 1.195312 -2.460938 0.746094 -1.195312 1.195312 -0.449219 Z M 1.195312 -0.449219 "/></g></g></g><g fill="#61c6c3" fill-opacity="1"><g transform="translate(236.737114, 92.45085)"><g><path d="M 29.46875 8.503906 C 36.183594 3.507812 45.730469 -12.160156 49.835938 -17.53125 C 49.835938 -17.90625 48.863281 -17.90625 48.566406 -17.605469 C 45.359375 -13.503906 34.542969 3.878906 28.125 8.132812 C 25.664062 9.699219 23.5 10.296875 22.605469 9.175781 C 19.917969 5.667969 24.320312 -14.101562 26.261719 -22.230469 C 50.65625 -49.609375 49.089844 -62.21875 41.554688 -62.21875 C 31.558594 -62.21875 24.023438 -46.253906 20.21875 -19.695312 C 18.128906 -24.695312 14.996094 -29.167969 10.964844 -29.246094 C -1.789062 -29.394531 -4.328125 -2.238281 2.609375 0.148438 C 6.9375 1.640625 13.503906 -5.59375 19.472656 -14.023438 C 18.277344 -4.921875 17.605469 3.058594 18.425781 6.191406 C 19.769531 11.265625 23.5 13.054688 29.46875 8.503906 Z M 26.484375 -24.171875 C 28.648438 -44.164062 36.40625 -61.023438 41.253906 -61.023438 C 47.371094 -61.023438 48.863281 -50.878906 26.484375 -24.171875 Z M 10.964844 -28.125 C 14.921875 -28.421875 18.351562 -21.558594 19.917969 -17.53125 L 19.695312 -16.039062 C 11.414062 -4.253906 5.894531 0.0742188 4.101562 -0.820312 C 0 -2.910156 5.59375 -27.679688 10.964844 -28.125 Z M 10.964844 -28.125 "/></g></g></g><g fill="#000000" fill-opacity="1"><g transform="translate(135.002493, 80.167401)"><g><path d="M 3.984375 0.09375 C 3.828125 0.09375 3.703125 0.0507812 3.609375 -0.03125 C 3.515625 -0.113281 3.441406 -0.234375 3.390625 -0.390625 L 0.578125 -8.4375 C 0.515625 -8.613281 0.523438 -8.757812 0.609375 -8.875 C 0.703125 -9 0.847656 -9.0625 1.046875 -9.0625 C 1.191406 -9.0625 1.304688 -9.023438 1.390625 -8.953125 C 1.472656 -8.878906 1.546875 -8.769531 1.609375 -8.625 L 4.234375 -0.890625 L 3.796875 -0.890625 L 6.484375 -8.578125 C 6.546875 -8.742188 6.617188 -8.863281 6.703125 -8.9375 C 6.785156 -9.019531 6.898438 -9.0625 7.046875 -9.0625 C 7.179688 -9.0625 7.285156 -9.019531 7.359375 -8.9375 C 7.441406 -8.863281 7.515625 -8.742188 7.578125 -8.578125 L 10.21875 -0.890625 L 9.828125 -0.890625 L 12.5 -8.625 C 12.539062 -8.769531 12.601562 -8.878906 12.6875 -8.953125 C 12.78125 -9.023438 12.898438 -9.0625 13.046875 -9.0625 C 13.222656 -9.0625 13.351562 -9 13.4375 -8.875 C 13.519531 -8.757812 13.523438 -8.613281 13.453125 -8.4375 L 10.640625 -0.390625 C 10.578125 -0.234375 10.5 -0.113281 10.40625 -0.03125 C 10.320312 0.0507812 10.195312 0.09375 10.03125 0.09375 C 9.882812 0.09375 9.765625 0.0507812 9.671875 -0.03125 C 9.578125 -0.113281 9.5 -0.234375 9.4375 -0.390625 L 6.875 -7.765625 L 7.15625 -7.765625 L 4.578125 -0.390625 C 4.515625 -0.234375 4.441406 -0.113281 4.359375 -0.03125 C 4.273438 0.0507812 4.148438 0.09375 3.984375 0.09375 Z M 3.984375 0.09375 "/></g></g></g><g fill="#000000" fill-opacity="1"><g transform="translate(152.295801, 80.167401)"><g><path d="M 0.921875 0.09375 C 0.785156 0.09375 0.675781 0.0625 0.59375 0 C 0.507812 -0.0703125 0.460938 -0.160156 0.453125 -0.265625 C 0.441406 -0.367188 0.460938 -0.488281 0.515625 -0.625 L 4.03125 -8.59375 C 4.101562 -8.757812 4.191406 -8.878906 4.296875 -8.953125 C 4.398438 -9.023438 4.515625 -9.0625 4.640625 -9.0625 C 4.773438 -9.0625 4.894531 -9.023438 5 -8.953125 C 5.101562 -8.878906 5.191406 -8.757812 5.265625 -8.59375 L 8.78125 -0.625 C 8.84375 -0.488281 8.867188 -0.363281 8.859375 -0.25 C 8.847656 -0.144531 8.800781 -0.0625 8.71875 0 C 8.644531 0.0625 8.539062 0.09375 8.40625 0.09375 C 8.25 0.09375 8.125 0.0507812 8.03125 -0.03125 C 7.9375 -0.113281 7.863281 -0.226562 7.8125 -0.375 L 6.859375 -2.5625 L 7.375 -2.296875 L 1.890625 -2.296875 L 2.421875 -2.5625 L 1.484375 -0.375 C 1.410156 -0.21875 1.332031 -0.0976562 1.25 -0.015625 C 1.164062 0.0546875 1.054688 0.09375 0.921875 0.09375 Z M 4.640625 -7.75 L 2.578125 -2.921875 L 2.28125 -3.171875 L 6.984375 -3.171875 L 6.71875 -2.921875 L 4.65625 -7.75 Z M 4.640625 -7.75 "/></g></g></g><g fill="#000000" fill-opacity="1"><g transform="translate(164.852368, 80.167401)"><g><path d="M 3.796875 0.09375 C 3.628906 0.09375 3.5 0.046875 3.40625 -0.046875 C 3.3125 -0.148438 3.265625 -0.289062 3.265625 -0.46875 L 3.265625 -4.640625 L 3.5 -3.921875 L 0.3125 -8.328125 C 0.226562 -8.441406 0.1875 -8.554688 0.1875 -8.671875 C 0.195312 -8.785156 0.242188 -8.878906 0.328125 -8.953125 C 0.410156 -9.023438 0.519531 -9.0625 0.65625 -9.0625 C 0.78125 -9.0625 0.890625 -9.035156 0.984375 -8.984375 C 1.078125 -8.929688 1.160156 -8.84375 1.234375 -8.71875 L 3.953125 -4.984375 L 3.6875 -4.984375 L 6.390625 -8.71875 C 6.484375 -8.851562 6.570312 -8.941406 6.65625 -8.984375 C 6.738281 -9.035156 6.84375 -9.0625 6.96875 -9.0625 C 7.101562 -9.0625 7.207031 -9.023438 7.28125 -8.953125 C 7.363281 -8.878906 7.40625 -8.785156 7.40625 -8.671875 C 7.40625 -8.554688 7.363281 -8.4375 7.28125 -8.3125 L 4.09375 -3.921875 L 4.3125 -4.640625 L 4.3125 -0.46875 C 4.3125 -0.09375 4.140625 0.09375 3.796875 0.09375 Z M 3.796875 0.09375 "/></g></g></g><g fill="#000000" fill-opacity="1"><g transform="translate(175.715423, 80.167401)"><g><path d="M 0.921875 0.09375 C 0.785156 0.09375 0.675781 0.0625 0.59375 0 C 0.507812 -0.0703125 0.460938 -0.160156 0.453125 -0.265625 C 0.441406 -0.367188 0.460938 -0.488281 0.515625 -0.625 L 4.03125 -8.59375 C 4.101562 -8.757812 4.191406 -8.878906 4.296875 -8.953125 C 4.398438 -9.023438 4.515625 -9.0625 4.640625 -9.0625 C 4.773438 -9.0625 4.894531 -9.023438 5 -8.953125 C 5.101562 -8.878906 5.191406 -8.757812 5.265625 -8.59375 L 8.78125 -0.625 C 8.84375 -0.488281 8.867188 -0.363281 8.859375 -0.25 C 8.847656 -0.144531 8.800781 -0.0625 8.71875 0 C 8.644531 0.0625 8.539062 0.09375 8.40625 0.09375 C 8.25 0.09375 8.125 0.0507812 8.03125 -0.03125 C 7.9375 -0.113281 7.863281 -0.226562 7.8125 -0.375 L 6.859375 -2.5625 L 7.375 -2.296875 L 1.890625 -2.296875 L 2.421875 -2.5625 L 1.484375 -0.375 C 1.410156 -0.21875 1.332031 -0.0976562 1.25 -0.015625 C 1.164062 0.0546875 1.054688 0.09375 0.921875 0.09375 Z M 4.640625 -7.75 L 2.578125 -2.921875 L 2.28125 -3.171875 L 6.984375 -3.171875 L 6.71875 -2.921875 L 4.65625 -7.75 Z M 4.640625 -7.75 "/></g></g></g><g fill="#000000" fill-opacity="1"><g transform="translate(188.271991, 80.167401)"><g><path d="M 1.609375 0.09375 C 1.441406 0.09375 1.316406 0.0507812 1.234375 -0.03125 C 1.148438 -0.125 1.109375 -0.257812 1.109375 -0.4375 L 1.109375 -8.53125 C 1.109375 -8.695312 1.148438 -8.828125 1.234375 -8.921875 C 1.316406 -9.015625 1.425781 -9.0625 1.5625 -9.0625 C 1.695312 -9.0625 1.796875 -9.035156 1.859375 -8.984375 C 1.929688 -8.941406 2.007812 -8.863281 2.09375 -8.75 L 7.640625 -1.34375 L 7.328125 -1.34375 L 7.328125 -8.5625 C 7.328125 -8.71875 7.367188 -8.835938 7.453125 -8.921875 C 7.546875 -9.015625 7.671875 -9.0625 7.828125 -9.0625 C 7.984375 -9.0625 8.097656 -9.015625 8.171875 -8.921875 C 8.253906 -8.835938 8.296875 -8.71875 8.296875 -8.5625 L 8.296875 -0.421875 C 8.296875 -0.253906 8.257812 -0.125 8.1875 -0.03125 C 8.125 0.0507812 8.019531 0.09375 7.875 0.09375 C 7.75 0.09375 7.648438 0.0664062 7.578125 0.015625 C 7.503906 -0.0351562 7.421875 -0.117188 7.328125 -0.234375 L 1.796875 -7.625 L 2.09375 -7.625 L 2.09375 -0.4375 C 2.09375 -0.257812 2.046875 -0.125 1.953125 -0.03125 C 1.867188 0.0507812 1.753906 0.09375 1.609375 0.09375 Z M 1.609375 0.09375 "/></g></g></g><g fill="#000000" fill-opacity="1"><g transform="translate(200.968623, 80.167401)"><g><path d="M 1.46875 0.046875 C 1.25 0.046875 1.078125 -0.015625 0.953125 -0.140625 C 0.828125 -0.273438 0.765625 -0.445312 0.765625 -0.65625 C 0.765625 -0.851562 0.828125 -1.015625 0.953125 -1.140625 C 1.078125 -1.273438 1.25 -1.34375 1.46875 -1.34375 C 1.675781 -1.34375 1.84375 -1.273438 1.96875 -1.140625 C 2.09375 -1.015625 2.15625 -0.851562 2.15625 -0.65625 C 2.15625 -0.445312 2.09375 -0.273438 1.96875 -0.140625 C 1.84375 -0.015625 1.675781 0.046875 1.46875 0.046875 Z M 1.46875 0.046875 "/></g></g></g><g fill="#000000" fill-opacity="1"><g transform="translate(207.145874, 80.167401)"><g><path d="M 1.6875 0 C 1.5 0 1.351562 -0.046875 1.25 -0.140625 C 1.15625 -0.242188 1.109375 -0.390625 1.109375 -0.578125 L 1.109375 -8.40625 C 1.109375 -8.59375 1.15625 -8.734375 1.25 -8.828125 C 1.351562 -8.929688 1.5 -8.984375 1.6875 -8.984375 L 4.140625 -8.984375 C 5.585938 -8.984375 6.707031 -8.597656 7.5 -7.828125 C 8.289062 -7.066406 8.6875 -5.957031 8.6875 -4.5 C 8.6875 -3.769531 8.585938 -3.125 8.390625 -2.5625 C 8.191406 -2.007812 7.894531 -1.539062 7.5 -1.15625 C 7.113281 -0.769531 6.640625 -0.476562 6.078125 -0.28125 C 5.515625 -0.09375 4.867188 0 4.140625 0 Z M 2.15625 -0.890625 L 4.0625 -0.890625 C 4.65625 -0.890625 5.171875 -0.960938 5.609375 -1.109375 C 6.046875 -1.265625 6.410156 -1.488281 6.703125 -1.78125 C 6.992188 -2.082031 7.210938 -2.460938 7.359375 -2.921875 C 7.503906 -3.378906 7.578125 -3.90625 7.578125 -4.5 C 7.578125 -5.695312 7.28125 -6.59375 6.6875 -7.1875 C 6.101562 -7.789062 5.226562 -8.09375 4.0625 -8.09375 L 2.15625 -8.09375 Z M 2.15625 -0.890625 "/></g></g></g><g fill="#000000" fill-opacity="1"><g transform="translate(219.867976, 80.167401)"><g><path d="M 1.6875 0 C 1.5 0 1.351562 -0.046875 1.25 -0.140625 C 1.15625 -0.242188 1.109375 -0.390625 1.109375 -0.578125 L 1.109375 -8.40625 C 1.109375 -8.59375 1.15625 -8.734375 1.25 -8.828125 C 1.351562 -8.929688 1.5 -8.984375 1.6875 -8.984375 L 6.421875 -8.984375 C 6.566406 -8.984375 6.675781 -8.941406 6.75 -8.859375 C 6.820312 -8.785156 6.859375 -8.679688 6.859375 -8.546875 C 6.859375 -8.398438 6.820312 -8.285156 6.75 -8.203125 C 6.675781 -8.128906 6.566406 -8.09375 6.421875 -8.09375 L 2.125 -8.09375 L 2.125 -4.984375 L 6.15625 -4.984375 C 6.300781 -4.984375 6.410156 -4.945312 6.484375 -4.875 C 6.554688 -4.8125 6.59375 -4.707031 6.59375 -4.5625 C 6.59375 -4.414062 6.554688 -4.300781 6.484375 -4.21875 C 6.410156 -4.144531 6.300781 -4.109375 6.15625 -4.109375 L 2.125 -4.109375 L 2.125 -0.875 L 6.421875 -0.875 C 6.566406 -0.875 6.675781 -0.835938 6.75 -0.765625 C 6.820312 -0.691406 6.859375 -0.585938 6.859375 -0.453125 C 6.859375 -0.304688 6.820312 -0.191406 6.75 -0.109375 C 6.675781 -0.0351562 6.566406 0 6.421875 0 Z M 1.6875 0 "/></g></g></g><g fill="#000000" fill-opacity="1"><g transform="translate(230.565501, 80.167401)"><g><path d="M 4.390625 0.09375 C 4.234375 0.09375 4.101562 0.0546875 4 -0.015625 C 3.894531 -0.0976562 3.8125 -0.21875 3.75 -0.375 L 0.25 -8.375 C 0.195312 -8.519531 0.179688 -8.640625 0.203125 -8.734375 C 0.222656 -8.835938 0.28125 -8.914062 0.375 -8.96875 C 0.46875 -9.03125 0.570312 -9.0625 0.6875 -9.0625 C 0.84375 -9.0625 0.960938 -9.023438 1.046875 -8.953125 C 1.128906 -8.878906 1.195312 -8.773438 1.25 -8.640625 L 4.609375 -0.84375 L 4.203125 -0.84375 L 7.546875 -8.65625 C 7.609375 -8.78125 7.679688 -8.878906 7.765625 -8.953125 C 7.847656 -9.023438 7.96875 -9.0625 8.125 -9.0625 C 8.238281 -9.0625 8.335938 -9.03125 8.421875 -8.96875 C 8.503906 -8.914062 8.554688 -8.835938 8.578125 -8.734375 C 8.597656 -8.628906 8.578125 -8.507812 8.515625 -8.375 L 5.015625 -0.375 C 4.953125 -0.21875 4.875 -0.0976562 4.78125 -0.015625 C 4.6875 0.0546875 4.554688 0.09375 4.390625 0.09375 Z M 4.390625 0.09375 "/></g></g></g></svg>